<?xml version="1.0" standalone="no"?>
<!DOCTYPE svg PUBLIC "-//W3C//DTD SVG 20010904//EN"
 "http://www.w3.org/TR/2001/REC-SVG-20010904/DTD/svg10.dtd">
<svg version="1.0" xmlns="http://www.w3.org/2000/svg"
 width="980.000000pt" height="980.000000pt" viewBox="0 0 980.000000 980.000000"
 preserveAspectRatio="xMidYMid meet">

<g transform="translate(0.000000,980.000000) scale(0.100000,-0.100000)"
fill="grey" stroke="none">
<path d="M1751 9789 c-134 -14 -276 -46 -420 -95 -729 -246 -1243 -893 -1321
-1663 -14 -144 -14 -6118 0 -6262 78 -770 592 -1417 1321 -1663 156 -53 289
-81 449 -96 81 -8 1033 -10 3200 -8 l3085 4 110 22 c427 84 766 262 1056 554
316 317 513 736 559 1187 14 144 14 6118 0 6262 -46 451 -243 870 -559 1187
-296 299 -642 477 -1081 559 -89 17 -278 18 -3205 19 -1746 1 -3147 -2 -3194
-7z m5887 -996 c314 -73 532 -191 748 -407 220 -221 347 -459 411 -771 17 -86
18 -215 18 -2720 0 -2532 -1 -2633 -19 -2720 -124 -597 -556 -1036 -1149
-1167 l-102 -23 -2640 0 c-2542 0 -2643 1 -2730 19 -603 125 -1045 567 -1171
1171 -18 87 -19 182 -19 2725 l0 2635 22 102 c91 421 338 765 706 984 146 87
376 165 549 187 43 6 1134 9 2678 8 l2605 -2 93 -21z"/>
<path d="M1960 6862 l0 -978 365 366 365 365 612 -613 613 -612 243 243 c133
133 242 247 242 252 0 5 -273 283 -607 617 l-608 608 365 365 365 365 -978 0
-977 0 0 -978z"/>
<path d="M6248 7477 c199 -199 362 -367 362 -372 0 -6 -272 -282 -605 -615
-333 -332 -605 -607 -605 -610 0 -3 109 -114 242 -247 l243 -243 610 609 610
610 368 -361 367 -360 0 976 0 976 -977 0 -978 0 363 -363z"/>
<path d="M3320 3804 c-327 -327 -604 -600 -614 -606 -17 -9 -64 35 -382 354
l-364 364 0 -978 0 -978 977 0 978 0 -363 363 c-199 199 -362 367 -362 372 0
6 109 119 243 253 133 133 406 406 607 607 l365 365 -240 240 c-132 132 -242
240 -245 240 -3 0 -273 -268 -600 -596z"/>
<path d="M5632 4158 l-242 -243 612 -612 613 -613 -365 -365 -365 -365 978 0
977 0 0 977 0 978 -364 -364 -364 -364 -28 21 c-16 11 -292 284 -614 606 -322
322 -587 586 -590 586 -3 0 -114 -109 -248 -242z"/>
</g>
</svg>
