<svg enable-background="new 0 0 211.077 211.077" viewBox="0 0 211.077 211.077" xmlns="http://www.w3.org/2000/svg"><path d="m105.47 211.077c-37.51 0-68.027-30.517-68.027-68.028v-.988h-1.488c-11.568 0-20.979-9.411-20.979-20.979v-9.606c0-11.568 9.411-20.979 20.979-20.979h1.488v-30.918c0-11.853 5.486-23.12 14.753-30.465-.333-1.606-.506-3.262-.506-4.943 0-4.319 2.3-8.756 6.153-11.868.039-.031.078-.061.118-.09l2.334-1.666c.083-.059.169-.113.258-.162.363-.198.774-.445 1.245-.728 2.199-1.319 5.522-3.313 11.018-4.99h.001c7.604-2.49 15.59-3.941 24.414-4.437 33.881-1.9 64.038 8.071 73.364 24.252 1.193 1.927 2.005 3.411 2.795 5.111 7.619 16.386 1.423 33.585.107 36.862v24.041h1.624c11.568 0 20.979 9.411 20.979 20.979v9.606c0 11.568-9.411 20.979-20.979 20.979h-1.624v.988c.001 37.512-30.516 68.029-68.027 68.029zm-63.027-71.516v3.488c0 34.754 28.274 63.028 63.027 63.028 34.754 0 63.028-28.274 63.028-63.028v-21.191h-4.429c-.668 0-1.308-.267-1.778-.742s-.729-1.118-.722-1.786c.003-.29.303-29.081-1.925-37.996-2.04-8.159-7.934-11.366-7.994-11.398-.604-.32-1.051-.874-1.235-1.533-.185-.658-.092-1.364.257-1.952.033-.055 3.431-5.876 3.581-11.458.023-.87-3.561-2.988-8.3-4.337-5.417-1.16-9.582-1.1-9.687-1.096-.019 0-.042 0-.061 0h-52c-7.521 0-14.019-1.292-19.313-3.842-.886-.426-1.738-.908-2.554-1.439-2.335 2.7-5.657 7.304-5.648 10.775.014 5.525 3.523 11.304 3.559 11.361.361.588.464 1.302.283 1.968s-.63 1.229-1.24 1.552c-.231.126-5.98 3.342-7.994 11.398-2.229 8.915-1.929 37.706-1.925 37.996.007.668-.252 1.311-.722 1.786s-1.11.742-1.778.742h-4.429v17.704zm131.191-2.5h1.488c8.811 0 15.979-7.168 15.979-15.979v-9.606c0-8.811-7.168-15.979-15.979-15.979h-1.488zm-137.679-41.564c-8.811 0-15.979 7.168-15.979 15.979v9.606c0 8.811 7.168 15.979 15.979 15.979h1.488v-41.564zm130.63 21.361h1.913v-50.265c-2.173-4.74-5.537-8.161-9.288-10.63-.302 4.367-1.991 8.548-3.146 10.954 2.525 1.973 6.663 6.137 8.43 13.204 1.999 7.996 2.114 29.339 2.091 36.737zm-124.142 0h1.913c-.023-7.398.092-28.741 2.091-36.737 1.761-7.043 5.876-11.204 8.404-13.185-1.272-2.577-3.15-7.171-3.162-11.869-.013-5.307 4.219-11.005 6.778-13.963-1.923-1.964-3.501-4.273-4.648-6.826-7.176 6.391-11.376 15.622-11.376 25.301zm94.208-72.381c3.392 0 23.563.639 33.742 15.312.355-1.348.71-2.915 1.002-4.647-2.933-2.857-13.529-12.21-29.297-15.208-11.022-2.095-24.042-1.284-36.633-.499-9.361.584-19.04 1.189-27.616.536-8.314-.631-14.077-2.801-18.019-5.227 1.808 2.758 4.323 5.017 7.344 6.452 4.592 2.182 10.319 3.288 17.021 3.288h52c.064-.003.219-.007.456-.007zm-11.294-10.878c6.125 0 12.095.361 17.675 1.422 13.856 2.634 23.881 9.605 29.015 13.95.089-2.201.025-4.529-.271-6.915-6.97-6.976-19.33-11.841-35.824-14.089-8.735-1.189-18.695.165-29.239 1.599-10.625 1.445-21.612 2.942-31.5 1.64-10.966-1.443-15.992-5.392-18.282-8.933-.158.638-.241 1.275-.241 1.899 0 .235.004.47.013.703.811 1.571 5.428 8.887 21.526 10.11 8.231.625 17.312.059 26.926-.541 6.714-.419 13.55-.845 20.202-.845zm3.363-11.079c2.712 0 5.358.146 7.906.493 13.973 1.904 25.27 5.678 33.214 11.041-.293-.787-.62-1.57-.983-2.351-.707-1.52-1.442-2.86-2.537-4.627-.021-.034-.042-.068-.061-.104-8.285-14.371-37.191-23.522-68.747-21.749-8.399.471-15.98 1.848-23.176 4.208-.029.01-.059.019-.088.027-4.893 1.496-7.891 3.295-9.877 4.486-.48.289-.907.544-1.29.756l-2.152 1.536c-.292.239-.573.489-.84.75.314 1.97 2.399 7.501 15.775 9.261 9.223 1.214 19.874-.236 30.173-1.637 7.594-1.031 15.376-2.09 22.683-2.09zm-2.367 156.288c-.453 0-.911-.123-1.323-.38l-18.745-11.716-18.745 11.715c-1.17.731-2.712.376-3.445-.795-.731-1.171-.376-2.713.795-3.445l16.679-10.424-16.679-10.424c-1.171-.732-1.526-2.274-.795-3.445.733-1.171 2.275-1.526 3.445-.795l18.745 11.716 18.745-11.716c1.17-.731 2.713-.376 3.445.795.731 1.171.376 2.713-.795 3.445l-16.679 10.424 16.679 10.424c1.171.732 1.526 2.274.795 3.445-.474.759-1.289 1.176-2.122 1.176zm3.48-54.609c-8.398 0-15.231-6.833-15.231-15.231 0-8.399 6.833-15.232 15.231-15.232 8.399 0 15.232 6.833 15.232 15.232 0 8.398-6.833 15.231-15.232 15.231zm0-25.464c-5.642 0-10.231 4.59-10.231 10.232s4.59 10.231 10.231 10.231c5.642 0 10.232-4.59 10.232-10.231 0-5.642-4.59-10.232-10.232-10.232zm-46.78 25.464c-8.398 0-15.231-6.833-15.231-15.231 0-8.399 6.833-15.232 15.231-15.232s15.231 6.833 15.231 15.232c0 8.398-6.833 15.231-15.231 15.231zm0-25.464c-5.642 0-10.231 4.59-10.231 10.232s4.59 10.231 10.231 10.231 10.231-4.59 10.231-10.231c0-5.642-4.59-10.232-10.231-10.232zm46.78 12.982c-1.381 0-2.5-1.119-2.5-2.5v-.25c0-1.381 1.119-2.5 2.5-2.5s2.5 1.119 2.5 2.5v.25c0 1.381-1.119 2.5-2.5 2.5zm-46.78 0c-1.381 0-2.5-1.119-2.5-2.5v-.25c0-1.381 1.119-2.5 2.5-2.5s2.5 1.119 2.5 2.5v.25c0 1.381-1.12 2.5-2.5 2.5zm55.496-27.644c-.437 0-.879-.114-1.281-.355l-17.334-10.366c-1.185-.708-1.571-2.244-.862-3.429s2.244-1.571 3.429-.862l17.334 10.366c1.185.708 1.571 2.244.862 3.429-.469.782-1.298 1.217-2.148 1.217zm-68.225 0c-.851 0-1.68-.434-2.148-1.217-.708-1.185-.323-2.72.862-3.429l17.333-10.366c1.185-.708 2.721-.322 3.429.862.708 1.185.323 2.72-.862 3.429l-17.334 10.366c-.402.24-.844.355-1.28.355z"/></svg>